# xmcd
#
# Track frame offsets:
#	150
#	10617
#	23575
#	36157
#	46782
#	62389
#	72765
#	90627
#	103380
#	116867
#	146732
#	155010
#	167437
#
# Disc length: 2379
#
# Revision: 4
# Processed by: cddbd v1.5.1PL0 Copyright (c) Steve Scherf et al.
# Submitted via: EasyCDDAExtractor 5.0.5.1
# Normalized: r3:DSETVAR1
#
DISCID=a209490d
DTITLE=Various Artist - The Blues Collection-Disk 6
DYEAR=1996
DGENRE=Blues
TTITLE0=John Lee Hooker - Maudie
TTITLE1=Ray Charles - Misery And Blues
TTITLE2=Ray Charles - I Can't Be Satisfied
TTITLE3=Elmore James - I Done Somebody Wrong
TTITLE4=Elmore James - I Believe
TTITLE5=Bo Diddley - Mess Around
TTITLE6=John Lee Hooker - Wednesday Evening Blues
TTITLE7=B. B. King - All Aboard
TTITLE8=Joe Liggins - The Honeydripper
TTITLE9=Pee Wee Crayton - In The Evening
TTITLE10=Billie Holiday - Miss Brown To You
TTITLE11=John Lee Hooker - Crawling King Snake
TTITLE12=Elmore James - Coming Home
EXTD=
EXTT0=
EXTT1=
EXTT2=
EXTT3=
EXTT4=
EXTT5=
EXTT6=
EXTT7=
EXTT8=
EXTT9=
EXTT10=
EXTT11=
EXTT12=
PLAYORDER=
